<svg width="379" height="169" viewBox="0 0 379 169" fill="none" xmlns="http://www.w3.org/2000/svg">
<path d="M359.038 57.0624C360.79 56.2644 362.748 57.6613 362.564 59.577L360.572 80.2659C360.387 82.1815 358.198 83.1791 356.631 82.0616L339.71 69.9919C338.143 68.8743 338.374 66.4798 340.125 65.6817L359.038 57.0624Z" stroke="black" stroke-opacity="0.1"/>
<path d="M31.0384 42.0624C32.7897 41.2644 34.7481 42.6613 34.5637 44.577L32.5715 65.2659C32.3871 67.1815 30.1981 68.1791 28.6313 67.0616L11.7102 54.9919C10.1434 53.8743 10.374 51.4798 12.1252 50.6817L31.0384 42.0624Z" stroke="black" stroke-opacity="0.1"/>
<path d="M76.0384 122.062C77.7897 121.264 79.7481 122.661 79.5637 124.577L77.5715 145.266C77.3871 147.182 75.1981 148.179 73.6313 147.062L56.7102 134.992C55.1434 133.874 55.374 131.48 57.1252 130.682L76.0384 122.062Z" stroke="black" stroke-opacity="0.1"/>
<path d="M236.038 57.0624C237.79 56.2644 239.748 57.6613 239.564 59.577L237.572 80.2659C237.387 82.1815 235.198 83.1791 233.631 82.0616L216.71 69.9919C215.143 68.8743 215.374 66.4798 217.125 65.6817L236.038 57.0624Z" stroke="black" stroke-opacity="0.1"/>
<rect x="85.5" y="6.5" width="19" height="19" rx="2.5" stroke="black" stroke-opacity="0.1"/>
<rect x="195.5" y="149.5" width="19" height="19" rx="2.5" stroke="black" stroke-opacity="0.1"/>
<rect x="137.5" y="98.5" width="19" height="19" rx="2.5" stroke="black" stroke-opacity="0.1"/>
<rect x="271.5" y="19.5" width="19" height="19" rx="2.5" stroke="black" stroke-opacity="0.1"/>
<circle cx="164.5" cy="52.5" r="12" stroke="black" stroke-opacity="0.1"/>
<circle cx="217.5" cy="3.5" r="12" stroke="black" stroke-opacity="0.1"/>
<circle cx="283.5" cy="117.5" r="12" stroke="black" stroke-opacity="0.1"/>
</svg>
